<svg width="26" height="24" viewBox="0 0 26 24" fill="none" xmlns="http://www.w3.org/2000/svg">
<path d="M22.1927 3.38553C19.7547 1.21781 16.448 -2.28406e-08 13.0002 0C9.5523 2.28406e-08 6.24566 1.21781 3.80766 3.38553C1.36966 5.55325 2.56885e-08 8.49331 0 11.5589C-2.56885e-08 14.6245 1.36966 17.5646 3.80766 19.7323C6.24566 21.9 9.5523 23.1178 13.0002 23.1178C16.448 23.1178 19.7547 21.9 22.1927 19.7323C24.6307 17.5646 26.0003 14.6245 26.0003 11.5589C26.0003 8.49331 24.6307 5.55325 22.1927 3.38553ZM20.7789 18.4753C19.2405 19.843 17.2805 20.7743 15.1467 21.1516C13.013 21.5289 10.8013 21.3351 8.79142 20.5948C6.78152 19.8545 5.06365 18.6009 3.85503 16.9925C2.64641 15.3842 2.00131 13.4933 2.00131 11.5589C2.00131 9.62458 2.64641 7.73368 3.85503 6.12531C5.06365 4.51695 6.78152 3.26336 8.79142 2.52305C10.8013 1.78274 13.013 1.58897 15.1467 1.96624C17.2805 2.3435 19.2405 3.27486 20.7789 4.64255C22.8388 6.47838 23.9956 8.96571 23.9956 11.5589C23.9956 14.1521 22.8388 16.6395 20.7789 18.4753ZM17.7077 6.48417C17.8006 6.56675 17.8744 6.66481 17.9247 6.77275C17.975 6.88069 18.0009 6.99639 18.0009 7.11324C18.0009 7.23008 17.975 7.34578 17.9247 7.45372C17.8744 7.56166 17.8006 7.65973 17.7077 7.7423L13.7077 11.2989C13.6148 11.3815 13.5045 11.4471 13.3831 11.4918C13.2617 11.5366 13.1316 11.5596 13.0002 11.5596C12.8687 11.5596 12.7386 11.5366 12.6172 11.4918C12.4958 11.4471 12.3855 11.3815 12.2927 11.2989L8.29266 7.7423C8.10502 7.57546 7.9996 7.34918 7.9996 7.11324C7.9996 6.87729 8.10502 6.65101 8.29266 6.48417C8.4803 6.31733 8.73479 6.22361 9.00016 6.22361C9.26552 6.22361 9.52002 6.31733 9.70766 6.48417L13.0002 9.41277L16.2927 6.48417C16.3855 6.4015 16.4958 6.33592 16.6172 6.29118C16.7386 6.24643 16.8687 6.2234 17.0002 6.2234C17.1316 6.2234 17.2617 6.24643 17.3831 6.29118C17.5045 6.33592 17.6148 6.4015 17.7077 6.48417ZM17.7077 12.7081C17.8006 12.7907 17.8744 12.8888 17.9247 12.9967C17.975 13.1047 18.0009 13.2204 18.0009 13.3372C18.0009 13.454 17.975 13.5697 17.9247 13.6777C17.8744 13.7856 17.8006 13.8837 17.7077 13.9663L13.7077 17.5228C13.6148 17.6055 13.5045 17.6711 13.3831 17.7158C13.2617 17.7606 13.1316 17.7836 13.0002 17.7836C12.8687 17.7836 12.7386 17.7606 12.6172 17.7158C12.4958 17.6711 12.3855 17.6055 12.2927 17.5228L8.29266 13.9663C8.10502 13.7994 7.9996 13.5731 7.9996 13.3372C7.9996 13.1013 8.10502 12.875 8.29266 12.7081C8.4803 12.5413 8.73479 12.4476 9.00016 12.4476C9.26552 12.4476 9.52002 12.5413 9.70766 12.7081L13.0002 15.6367L16.2927 12.7081C16.3855 12.6255 16.4958 12.5599 16.6172 12.5151C16.7386 12.4704 16.8687 12.4474 17.0002 12.4474C17.1316 12.4474 17.2617 12.4704 17.3831 12.5151C17.5045 12.5599 17.6148 12.6255 17.7077 12.7081Z" fill="#48494A"/>
</svg>
