<svg width="41" height="48" viewBox="0 0 41 48" fill="none" xmlns="http://www.w3.org/2000/svg">
<path d="M31.6455 17.2156C35.245 19.4651 37.0445 20.5899 37.6617 22.0301C38.2007 23.2876 38.2007 24.7114 37.6617 25.9691C37.0445 27.4091 35.245 28.5339 31.6455 30.7836L14.74 41.3496C10.7451 43.8464 8.74767 45.0949 7.09932 44.9621C5.66252 44.8466 4.34545 44.1169 3.486 42.9596C2.5 41.6321 2.5 39.2766 2.5 34.5656V13.4336C2.5 8.72262 2.5 6.36717 3.486 5.03959C4.34545 3.88239 5.66252 3.15242 7.09932 3.03689C8.74767 2.90439 10.7451 4.15279 14.74 6.64959L31.6455 17.2156Z" stroke="black" stroke-width="5" stroke-linejoin="round"/>
</svg>
