<svg width="187" height="51" viewBox="0 0 187 51" fill="none" xmlns="http://www.w3.org/2000/svg">
<rect x="0.5" y="0.5" width="186" height="50" rx="25" fill="black" fill-opacity="0.1" stroke="white"/>
<path d="M96.18 21.3V24.8H100.88V27.02H96.18V30.72H101.48V33H93.38V19.02H101.48V21.3H96.18ZM108.905 19.04C110.371 19.04 111.658 19.3267 112.765 19.9C113.885 20.4733 114.745 21.2933 115.345 22.36C115.958 23.4133 116.265 24.64 116.265 26.04C116.265 27.44 115.958 28.6667 115.345 29.72C114.745 30.76 113.885 31.5667 112.765 32.14C111.658 32.7133 110.371 33 108.905 33H104.025V19.04H108.905ZM108.805 30.62C110.271 30.62 111.405 30.22 112.205 29.42C113.005 28.62 113.405 27.4933 113.405 26.04C113.405 24.5867 113.005 23.4533 112.205 22.64C111.405 21.8133 110.271 21.4 108.805 21.4H106.825V30.62H108.805ZM121.16 19.04V33H118.36V19.04H121.16ZM133.427 19.04V21.3H129.707V33H126.907V21.3H123.187V19.04H133.427Z" fill="white"/>
<path d="M78.5999 19.001L66.6749 30.9259C65.4874 32.1134 61.9623 32.6634 61.1748 31.8759C60.3873 31.0884 60.9248 27.5634 62.1123 26.3759L74.0499 14.4384C74.3443 14.1173 74.7006 13.8591 75.0976 13.6795C75.4945 13.4998 75.9238 13.4025 76.3594 13.3933C76.7949 13.3841 77.2279 13.4633 77.632 13.6261C78.0361 13.7888 78.4031 14.0318 78.7108 14.3403C79.0184 14.6488 79.2604 15.0165 79.422 15.421C79.5836 15.8256 79.6618 16.2587 79.6514 16.6943C79.641 17.1299 79.5424 17.5589 79.3618 17.9553C79.181 18.3517 78.9219 18.7075 78.5999 19.001Z" stroke="white" stroke-width="2.5" stroke-linecap="round" stroke-linejoin="round"/>
<path d="M65.75 16H59.5C58.1739 16 56.9022 16.5268 55.9645 17.4645C55.0269 18.4021 54.5 19.6739 54.5 21V33.5C54.5 34.8261 55.0269 36.0979 55.9645 37.0355C56.9022 37.9732 58.1739 38.5 59.5 38.5H73.25C76.0125 38.5 77 36.25 77 33.5V27.25" stroke="white" stroke-width="2.5" stroke-linecap="round" stroke-linejoin="round"/>
</svg>
