<svg width="415" height="475" viewBox="0 0 415 475" fill="none" xmlns="http://www.w3.org/2000/svg">
<path d="M164.165 0L147.988 104.989L191.484 111.717L191.486 111.718L208.698 0H206.675L189.814 109.435L150.269 103.318L166.188 0H164.165Z" fill="#B7B7B7"/>
<path fill-rule="evenodd" clip-rule="evenodd" d="M-41.7724 17.5895L-69.3275 51.9114L65.7966 160.529L93.3516 126.207L-41.7724 17.5895ZM65.4899 157.716L-66.5166 51.6049L-41.4657 20.4021L90.5407 126.514L65.4899 157.716Z" fill="#B7B7B7"/>
<path fill-rule="evenodd" clip-rule="evenodd" d="M379.328 356.087L244.204 247.469L216.649 281.791L351.773 390.409L379.328 356.087ZM219.46 281.484L244.511 250.282L376.517 356.393L351.466 387.596L219.46 281.484Z" fill="#B7B7B7"/>
<path fill-rule="evenodd" clip-rule="evenodd" d="M135.612 474.355L92.115 467.626L118.515 296.281L162.012 303.009L135.612 474.355ZM159.731 304.68L133.94 472.073L94.396 465.955L120.187 298.563L159.731 304.68Z" fill="#B7B7B7"/>
<path fill-rule="evenodd" clip-rule="evenodd" d="M-88.7157 322.267L-104.658 281.217L56.8663 218.489L72.8084 259.539L-88.7157 322.267ZM-87.5753 319.679L-102.069 282.357L55.726 221.077L70.22 258.399L-87.5753 319.679Z" fill="#B7B7B7"/>
<path fill-rule="evenodd" clip-rule="evenodd" d="M398.716 85.7308L414.658 126.781L253.134 189.51L237.192 148.459L398.716 85.7308ZM397.576 88.3192L412.07 125.641L254.275 186.921L239.781 149.599L397.576 88.3192Z" fill="#B7B7B7"/>
</svg>
