<svg width="60" height="60" viewBox="0 0 60 60" fill="none" xmlns="http://www.w3.org/2000/svg">
<path fill-rule="evenodd" clip-rule="evenodd" d="M7.5 17.5C7.5 16.1193 8.6193 15 10 15H50C51.3807 15 52.5 16.1193 52.5 17.5C52.5 18.8807 51.3807 20 50 20H10C8.6193 20 7.5 18.8807 7.5 17.5ZM15 30C15 28.6193 16.1193 27.5 17.5 27.5H42.5C43.8807 27.5 45 28.6193 45 30C45 31.3807 43.8807 32.5 42.5 32.5H17.5C16.1193 32.5 15 31.3807 15 30ZM22.5 42.5C22.5 41.1193 23.6193 40 25 40H35C36.3807 40 37.5 41.1193 37.5 42.5C37.5 43.8807 36.3807 45 35 45H25C23.6193 45 22.5 43.8807 22.5 42.5Z" fill="white"/>
</svg>
