<svg xmlns="http://www.w3.org/2000/svg" width="32" height="32" viewBox="0 0 32 32" fill="none">
  <path d="M4.345 5.25082C4.23742 5.34407 4.15099 5.45922 4.09149 5.58856C4.032 5.7179 4.0008 5.85845 4 6.00082V27.0008C4 27.266 4.10536 27.5204 4.29289 27.7079C4.48043 27.8955 4.73478 28.0008 5 28.0008C5.26522 28.0008 5.51957 27.8955 5.70711 27.7079C5.89464 27.5204 6 27.266 6 27.0008V21.4721C9.34875 18.8271 12.2337 20.2533 15.5562 21.8983C17.6062 22.9121 19.8137 24.0046 22.1812 24.0046C23.9225 24.0046 25.7488 23.4108 27.6588 21.7546C27.7663 21.6613 27.8528 21.5462 27.9123 21.4168C27.9718 21.2875 28.0029 21.1469 28.0037 21.0046V6.00082C28.0033 5.80888 27.9476 5.62112 27.8433 5.45997C27.7391 5.29881 27.5906 5.17107 27.4157 5.09199C27.2408 5.01291 27.0469 4.98584 26.857 5.014C26.6672 5.04217 26.4894 5.12438 26.345 5.25082C22.845 8.27957 19.88 6.81207 16.4438 5.11082C12.8838 3.34582 8.8475 1.34957 4.345 5.25082ZM26 20.5321C22.6512 23.1771 19.7663 21.7496 16.4438 20.1058C13.3188 18.5621 9.8425 16.8396 6 19.0558V6.47457C9.34875 3.82957 12.2337 5.25582 15.5562 6.89957C18.6812 8.44332 22.1588 10.1658 26 7.94957V20.5321Z" fill="#64D3FE"/>
</svg>