<svg width="26" height="26" viewBox="0 0 26 26" fill="none" xmlns="http://www.w3.org/2000/svg">
<g clip-path="url(#clip0_742_486)">
<path fill-rule="evenodd" clip-rule="evenodd" d="M13 0C20.1799 0 26 5.96691 26 13.3288C26 19.2165 22.2794 24.2111 17.1171 25.9752C16.458 26.1065 16.224 25.6903 16.224 25.3354C16.224 24.896 16.2396 23.4608 16.2396 21.6772C16.2396 20.4344 15.8236 19.6233 15.3569 19.2099C18.252 18.8797 21.294 17.7525 21.294 12.6331C21.294 11.1771 20.7896 9.98897 19.955 9.05557C20.0902 8.71887 20.5361 7.36314 19.8276 5.52754C19.8276 5.52754 18.7382 5.17039 16.2565 6.89419C15.2178 6.59909 14.105 6.45061 13 6.44541C11.895 6.45061 10.7835 6.59909 9.7461 6.89419C7.2618 5.17039 6.1698 5.52754 6.1698 5.52754C5.4639 7.36314 5.9098 8.71887 6.0437 9.05557C5.213 9.98897 4.7047 11.1771 4.7047 12.6331C4.7047 17.7395 7.7402 18.884 10.6275 19.2207C10.2557 19.5535 9.919 20.1406 9.802 21.0025C9.061 21.3431 7.1786 21.9326 6.019 19.8955C6.019 19.8955 5.3313 18.6148 4.0261 18.5212C4.0261 18.5212 2.7586 18.5044 3.9377 19.3312C3.9377 19.3312 4.7892 19.7407 5.3807 21.2812C5.3807 21.2812 6.1438 23.6601 9.7604 22.8541C9.7669 23.9682 9.7786 25.0182 9.7786 25.3354C9.7786 25.6877 9.5394 26.1 8.8907 25.9765C3.7245 24.215 0 19.2178 0 13.3288C0 5.96691 5.8214 0 13 0Z" fill="#64D3FE"/>
</g>
<defs>
<clipPath id="clip0_742_486">
<rect width="26" height="26" fill="white"/>
</clipPath>
</defs>
</svg>
