<svg width="1112" height="79" viewBox="0 0 1112 79" fill="none" xmlns="http://www.w3.org/2000/svg">
<path fill-rule="evenodd" clip-rule="evenodd" d="M445.386 77.3V68.3C443.286 69.3 441.386 69.7 438.686 69.7C433.286 69.7 430.486 66.9 430.486 59.2V30.5H445.386V21.8H430.486V0L421.386 5.5V21.8H409.586V30.5H421.386V60.9C421.386 73 425.686 78.8 437.086 78.8C440.186 78.8 443.086 78.2 445.386 77.3ZM139.883 77.8V0.200001H130.183V77.8H139.883ZM48.3 4.8H58V47.7C58 68.6 46.4 78.8 28.6 78.8C10.5 78.8 0 69.5 0 47.7V4.8H9.7V47.6C9.7 62.3 16 69.7 28.6 69.7C41.5 69.7 48.3 62.3 48.3 47.6V4.8ZM67.2922 77.8V21.8H76.8922V45C79.3922 28.6 87.7922 20.7 99.4922 20.7C113.692 20.7 120.792 29.5 120.792 43.3V77.8H111.192V46.2C111.192 35.5 106.592 28.7 94.8922 28.7C85.4922 28.7 79.2922 33.9 76.9922 46.4V77.8H67.2922ZM208.735 66.2C208.735 61.3 210.735 58.1 214.635 55.5C219.321 52.2026 226.266 50.7124 234.228 49.0037L234.228 49.0036C235.442 48.7432 236.679 48.4777 237.935 48.2C245.435 46.7 251.935 45.1 251.935 40.9C251.935 34.3 248.135 29 237.135 29C227.935 29 221.535 32.7 217.435 41.3L209.035 36.6C215.035 26.2 224.435 20.7 237.335 20.7C253.135 20.7 261.035 28.2 261.035 41.1V65.1C261.035 69 262.235 70 265.035 70C266.735 70 267.735 69.7 268.435 69.2V77.6C267.235 78.3 264.635 78.8 261.935 78.8C255.035 78.8 251.435 75.4 251.635 66.9L251.735 54C248.335 67.6 238.135 79 225.235 79C213.535 79 208.735 73.2 208.735 66.2ZM251.935 51.3V45.2C250.035 48.6 243.835 49.9 236.635 51.3C235.285 51.5747 233.999 51.8195 232.779 52.0515C223.785 53.7619 218.435 54.7794 218.435 62C218.435 67.2 222.635 70.8 231.035 70.8C240.935 70.8 249.435 64.9 251.935 51.3ZM277.035 59.5L269.235 67.7C276.735 74.5 285.135 78.9 299.135 78.9C316.135 78.9 323.135 71.2 323.135 62.6C323.135 53.3 316.335 49.2 297.435 48.2C285.335 47.5 281.635 44.8 281.635 39.3C281.635 33.7 285.635 29 295.535 29C305.235 29 311.435 32.7 316.835 39.2L323.835 31.6C316.735 24.5 307.835 20.4 295.135 20.4C280.435 20.3 272.435 27.4 272.435 36.9C272.435 45 277.735 49.8 297.235 50.8C309.435 51.5 314.135 53.2 314.135 59.3C314.135 65.5 309.635 70.2 300.035 70.2C288.835 70.2 282.335 65.7 277.035 59.5ZM330.183 0.200001H339.883V44.6L339.783 45.6C342.183 28.8 350.383 20.7 362.183 20.7C375.983 20.7 383.383 29.5 383.383 43.3V77.8H374.083V46.2C374.083 35.5 369.483 28.7 357.783 28.7C348.383 28.7 342.183 33.9 339.883 46.4V77.8H330.183V0.200001ZM452.546 0.200001H462.246V44.6L462.146 45.6C464.546 28.8 472.746 20.7 484.546 20.7C498.346 20.7 505.746 29.5 505.746 43.3V77.8H496.446V46.2C496.446 35.5 491.846 28.7 480.146 28.7C470.746 28.7 464.546 33.9 462.246 46.4V77.8H452.546V0.200001ZM607.266 0.200001H597.566V77.8H607.266V46.4C609.566 33.9 615.766 28.7 625.166 28.7C636.866 28.7 641.466 35.5 641.466 46.2V77.8H650.766V43.3C650.766 29.5 643.366 20.7 629.566 20.7C617.766 20.7 609.566 28.8 607.166 45.6L607.266 44.6V0.200001ZM658.063 50C658.063 34.2 668.663 20.7 687.063 20.7C705.563 20.7 715.063 32.3 715.063 47.9V51.9H667.62C668.267 62.5884 674.484 70 686.863 70C697.363 70 703.363 66.3008 705.563 57.9008L715.063 60.3008C711.863 72.1008 702.363 78.8 687.163 78.8C667.263 78.8 658.063 66.3 658.063 50ZM687.063 29.5C674.763 29.5 667.863 37.9 667.563 49.1H705.563V48.3C705.563 37 699.563 29.5 687.063 29.5ZM760.88 24.4C758.08 22.4 753.88 20.9 749.28 20.9C737.98 20.9 732.88 28.2 731.58 43.9V21.8H721.98V77.8H731.68V45C732.98 33.5 738.98 29.9 745.68 29.9C750.48 29.9 753.68 31.2 757.08 34L760.88 24.4ZM789.019 78.8C770.019 78.8 759.919 65.8 759.919 49.8C759.919 34 770.519 20.7 789.019 20.7C807.619 20.7 818.119 33.7 818.119 49.8C818.119 65.6 808.119 78.8 789.019 78.8ZM789.019 70C802.119 70 808.719 61.4 808.719 49.8C808.719 37.9 801.719 29.5 789.019 29.5C776.419 29.5 769.419 38.2 769.419 49.8C769.419 61.6 776.119 70 789.019 70ZM865.998 77.8L874.852 42.5L876.698 33.1L878.352 42.5L886.298 77.8H898.498L911.398 21.8H901.698L893.698 57.7L889.598 75.7L885.398 57.7L877.098 23H876.398L862.698 75.8L859.298 57.7L852.598 21.8H842.698L853.598 77.8H865.998ZM927.287 24.3008V77.8H917.588V39.373C917.588 34.8946 919.589 30.6504 923.044 27.801L926.681 24.8008H917.589V21.8008H927.285V24.3032L927.287 24.3008ZM968.921 77.3V68.3C966.821 69.3 964.921 69.7 962.221 69.7C956.821 69.7 954.021 66.9 954.021 59.2V30.5H968.921V21.8H954.021V0L944.921 5.5V21.8H933.121V30.5H944.921V60.9C944.921 73 949.221 78.8 960.621 78.8C963.721 78.8 966.621 78.2 968.921 77.3ZM976.081 0.200001H985.781V44.6L985.681 45.6C988.081 28.8 996.281 20.7 1008.08 20.7C1021.88 20.7 1029.28 29.5 1029.28 43.3V77.8H1019.98V46.2C1019.98 35.5 1015.38 28.7 1003.68 28.7C994.281 28.7 988.081 33.9 985.781 46.4V77.8H976.081V0.200001ZM1058.11 21.8V77.8H1067.81V46.4C1070.11 33.9 1076.31 28.7 1085.71 28.7C1097.41 28.7 1102.01 35.5 1102.01 46.2V77.8H1111.61V43.3C1111.61 29.5 1104.51 20.7 1090.31 20.7C1078.61 20.7 1070.21 28.6 1067.71 45V21.8H1058.11ZM511.852 49.9996C511.852 34.1996 522.452 20.6996 540.852 20.6996C559.352 20.6996 568.852 32.2996 568.852 47.8996V51.8996H521.408C522.055 62.5881 528.273 69.9996 540.652 69.9996C551.152 69.9996 557.152 66.3004 559.352 57.9004L568.852 60.3004C565.652 72.1004 556.152 78.7996 540.952 78.7996C521.052 78.7996 511.852 66.2996 511.852 49.9996ZM540.852 29.4996C528.552 29.4996 521.652 37.8996 521.352 49.0996H559.352V48.2996C559.352 36.9996 553.352 29.4996 540.852 29.4996ZM176.419 20.9003C158.019 20.9003 147.419 34.4003 147.419 50.2003C147.419 66.5003 156.619 79.0003 176.519 79.0003C191.719 79.0003 201.219 72.3011 204.419 60.5011L194.919 58.1011C192.719 66.5011 186.719 70.2003 176.219 70.2003C163.84 70.2003 157.622 62.7888 156.975 52.1003H204.419V48.1003C204.419 32.5003 194.919 20.9003 176.419 20.9003ZM156.919 49.3003C157.219 38.1003 164.119 29.7003 176.419 29.7003C188.919 29.7003 194.919 37.2003 194.919 48.5003V49.3003H156.919ZM1048.48 24.8008V77.8H1038.78V39.373C1038.78 34.8946 1040.78 30.6504 1044.23 27.801L1047.87 24.8008H1038.85V21.8008H1048.49V24.8008H1048.48Z" fill="white"/>
</svg>
