<svg width="25" height="25" viewBox="0 0 25 25" fill="none" xmlns="http://www.w3.org/2000/svg">
<path d="M21.1144 16.9414L21.8493 12.6916C22.0328 11.6302 21.2166 10.6593 20.1405 10.6593H14.7435C14.2087 10.6593 13.8014 10.1792 13.8879 9.65076L14.5782 5.43768C14.6903 4.75323 14.6583 4.05287 14.4842 3.38153C14.3399 2.82541 13.9108 2.37886 13.3466 2.19759L13.1955 2.14906C12.8545 2.03951 12.4823 2.065 12.1607 2.21994C11.8069 2.39048 11.5479 2.70154 11.452 3.0715L10.9565 4.98176C10.7988 5.58957 10.5692 6.17625 10.273 6.7306C9.84035 7.54054 9.17141 8.18876 8.47606 8.78796L6.97738 10.0794C6.55482 10.4436 6.3329 10.9889 6.38098 11.545L7.22699 21.329C7.30459 22.2264 8.0549 22.9154 8.95467 22.9154H13.797C17.4233 22.9154 20.5181 20.3887 21.1144 16.9414Z" fill="#1C274C"/>
<path fill-rule="evenodd" clip-rule="evenodd" d="M3.09132 9.87964C3.5093 9.86161 3.8673 10.1761 3.90334 10.5929L4.91543 22.2976C4.98044 23.0495 4.38821 23.6975 3.63199 23.6975C2.91968 23.6975 2.34375 23.1196 2.34375 22.4086V10.6602C2.34375 10.2418 2.67333 9.89769 3.09132 9.87964Z" fill="#1C274C"/>
</svg>
