<svg width="54" height="60" viewBox="0 0 54 60" fill="none" xmlns="http://www.w3.org/2000/svg">
<path d="M50.0693 29.7165L28.7922 50.9928C27.4214 52.3636 25.848 53.3847 24.1652 54.0672C21.6422 55.0902 18.8724 55.3478 16.2251 54.8348C13.577 54.3218 11.0625 53.0477 9.00671 50.9929C7.63679 49.623 6.61656 48.0494 5.93324 46.3659C4.91031 43.843 4.6525 41.0731 5.16566 38.4267C5.67964 35.7786 6.95277 33.264 9.00683 31.2084L32.8111 7.4041C33.648 6.56808 34.604 5.94746 35.6277 5.53273C37.1629 4.90953 38.8523 4.75273 40.4632 5.06468C42.0768 5.37839 43.6036 6.15101 44.8575 7.4041C45.6934 8.24011 46.3134 9.19613 46.7288 10.2207C47.352 11.7549 47.5089 13.4436 47.196 15.0563C46.8831 16.6691 46.1106 18.195 44.8575 19.4506L21.7615 42.5464C21.4646 42.8427 21.1316 43.0578 20.7729 43.2038C20.2373 43.4207 19.6408 43.4775 19.0743 43.3674C18.5062 43.2556 17.978 42.9895 17.5333 42.5464C17.2363 42.2494 17.0219 41.9173 16.8767 41.5586C16.6581 41.023 16.6022 40.4257 16.7124 39.86C16.8234 39.2927 17.0903 38.7637 17.5333 38.3191L38.1021 17.7494L34.6315 14.2787L14.0618 34.8474C13.2959 35.6134 12.7136 36.5094 12.3273 37.4622C11.7483 38.8913 11.6048 40.4473 11.8935 41.939C12.1805 43.4308 12.9114 44.8674 14.0618 46.017C14.8286 46.7846 15.7238 47.3669 16.6757 47.7525C18.1056 48.3323 19.6608 48.4749 21.1534 48.1863C22.6443 47.8993 24.0818 47.1693 25.2323 46.017L48.329 22.9219C49.6347 21.6154 50.6225 20.0962 51.2782 18.4785C52.2619 16.0508 52.5064 13.4027 52.0158 10.8648C51.5261 8.32847 50.2896 5.89226 48.3291 3.93253C47.0226 2.62683 45.5032 1.63906 43.8856 0.983394C41.4578 -0.00109814 38.8097 -0.244731 36.2718 0.244996C33.7355 0.735543 31.2994 1.97199 29.3396 3.93265L5.53597 27.7375C3.69461 29.5763 2.30722 31.7138 1.38449 33.9897C-0.000316948 37.4062 -0.345786 41.1346 0.345855 44.7079C1.03586 48.2796 2.77363 51.7035 5.53609 54.4643C7.3757 56.3056 9.51238 57.693 11.7892 58.6157C15.2048 59.9998 18.9341 60.3452 22.5066 59.6544C26.0782 58.9636 29.5022 57.2266 32.2629 54.4641L53.5402 33.1871L50.0693 29.7165Z" fill="black"/>
</svg>
