<svg width="27" height="26" viewBox="0 0 27 26" fill="none" xmlns="http://www.w3.org/2000/svg">
<path id="Vector" d="M25.8775 23.5034C23.9738 20.2122 21.04 17.8521 17.6163 16.7334C19.3098 15.7252 20.6256 14.189 21.3616 12.3606C22.0975 10.5323 22.2129 8.5129 21.6901 6.6126C21.1673 4.71229 20.0351 3.03614 18.4675 1.84156C16.8999 0.64697 14.9835 0 13.0125 0C11.0416 0 9.12521 0.64697 7.55758 1.84156C5.98995 3.03614 4.85779 4.71229 4.33497 6.6126C3.81215 8.5129 3.92758 10.5323 4.66353 12.3606C5.39948 14.189 6.71525 15.7252 8.4088 16.7334C4.98505 17.8509 2.0513 20.2109 0.147545 23.5034C0.0777316 23.6172 0.0314245 23.7439 0.0113565 23.8759C-0.00871156 24.0079 -0.00213409 24.1426 0.0307008 24.2721C0.0635357 24.4015 0.121963 24.5231 0.202535 24.6296C0.283108 24.7361 0.384193 24.8253 0.499827 24.8921C0.615461 24.9589 0.743301 25.0019 0.875805 25.0185C1.00831 25.035 1.14279 25.0249 1.27132 24.9887C1.39985 24.9525 1.51982 24.8909 1.62415 24.8075C1.72849 24.7242 1.81507 24.6208 1.8788 24.5034C4.2338 20.4334 8.3963 18.0034 13.0125 18.0034C17.6288 18.0034 21.7913 20.4334 24.1463 24.5034C24.21 24.6208 24.2966 24.7242 24.4009 24.8075C24.5053 24.8909 24.6252 24.9525 24.7538 24.9887C24.8823 25.0249 25.0168 25.035 25.1493 25.0185C25.2818 25.0019 25.4096 24.9589 25.5253 24.8921C25.6409 24.8253 25.742 24.7361 25.8226 24.6296C25.9031 24.5231 25.9616 24.4015 25.9944 24.2721C26.0272 24.1426 26.0338 24.0079 26.0137 23.8759C25.9937 23.7439 25.9474 23.6172 25.8775 23.5034ZM6.01255 9.0034C6.01255 7.61893 6.42309 6.26555 7.19226 5.11441C7.96143 3.96327 9.05468 3.06606 10.3338 2.53624C11.6128 2.00643 13.0203 1.86781 14.3782 2.1379C15.736 2.408 16.9833 3.07469 17.9623 4.05365C18.9413 5.03262 19.6079 6.2799 19.878 7.63777C20.1481 8.99564 20.0095 10.4031 19.4797 11.6822C18.9499 12.9613 18.0527 14.0545 16.9015 14.8237C15.7504 15.5929 14.397 16.0034 13.0125 16.0034C11.1566 16.0014 9.37732 15.2633 8.06499 13.951C6.75267 12.6386 6.01453 10.8593 6.01255 9.0034Z" fill="#344054"/>
</svg>
