<svg id="Layer_1" data-name="Layer 1" xmlns="http://www.w3.org/2000/svg" viewBox="0 0 512 512"><defs><style>.cls-1{fill:#d9e4e8;}.cls-2{fill:#79d3d3;}.cls-3{fill:#141f38;}.cls-4{fill:#17292d;opacity:0.14;}</style></defs><title>user-plus-filled</title><path class="cls-1" d="M281.6,321.16V269.58a115.33,115.33,0,0,0,64-103.18V128a115.2,115.2,0,1,0-230.4,0v38.4a115.33,115.33,0,0,0,64,103.18v51.58C100,330.67,38.4,398.27,38.4,480a19.22,19.22,0,0,0,19.2,19.2H403.2A19.22,19.22,0,0,0,422.4,480C422.4,398.27,360.8,330.67,281.6,321.16Z"/><path class="cls-2" d="M396.8,448a76.8,76.8,0,1,1,76.8-76.8A76.89,76.89,0,0,1,396.8,448Z"/><path class="cls-3" d="M486.4,371.2a89.6,89.6,0,0,0-162.15-52.57,171.5,171.5,0,0,0-29.85-8.45V277.27a128,128,0,0,0,64-110.87V128a128,128,0,0,0-256,0v38.4a128,128,0,0,0,64,110.87v32.91A172.84,172.84,0,0,0,25.6,480a32,32,0,0,0,32,32H403.2a32,32,0,0,0,32-32,173.81,173.81,0,0,0-2.1-26.87A89.61,89.61,0,0,0,486.4,371.2ZM128,166.4V128a102.4,102.4,0,1,1,204.8,0v38.4a102.4,102.4,0,1,1-204.8,0ZM268.8,288.54v29.77l-38.4,23-38.4-23V288.54a128.66,128.66,0,0,0,76.8,0ZM403.2,486.4H57.6a6.41,6.41,0,0,1-6.4-6.4c0-71.72,51.56-131.61,119.56-144.58L230.4,371.2,290,335.42a145.91,145.91,0,0,1,22.21,6.09A89.65,89.65,0,0,0,396.8,460.8a90.46,90.46,0,0,0,11.45-.72A147.71,147.71,0,0,1,409.6,480,6.41,6.41,0,0,1,403.2,486.4Zm-6.4-51.2a64,64,0,1,1,64-64A64.07,64.07,0,0,1,396.8,435.2Zm38.4-64A12.8,12.8,0,0,1,422.4,384H409.6v12.8a12.8,12.8,0,0,1-25.6,0V384H371.2a12.8,12.8,0,0,1,0-25.6H384V345.6a12.8,12.8,0,1,1,25.6,0v12.8h12.8A12.8,12.8,0,0,1,435.2,371.2Z"/><path class="cls-4" d="M230.4,0a127.82,127.82,0,0,0-32,4.2,127.94,127.94,0,0,1,96,123.8v38.4a127.94,127.94,0,0,1-96,123.8,127.55,127.55,0,0,0,160-123.8V128A128,128,0,0,0,230.4,0Z"/></svg>