<svg width="60" height="60" viewBox="0 0 60 60" fill="none" xmlns="http://www.w3.org/2000/svg">
<path fill-rule="evenodd" clip-rule="evenodd" d="M52.5 27.7437V40.2273C52.5 47.9688 52.5 51.8395 50.6647 53.5308C49.7895 54.3375 48.6847 54.8443 47.5077 54.9788C45.04 55.2613 42.1583 52.7122 36.3945 47.6145C33.847 45.3612 32.573 44.2345 31.0993 43.9377C30.3735 43.7915 29.6265 43.7915 28.9007 43.9377C27.427 44.2345 26.153 45.3612 23.6054 47.6145C17.8418 52.7122 14.9601 55.2613 12.4923 54.9788C11.3154 54.8443 10.2105 54.3375 9.33528 53.5308C7.5 51.8395 7.5 47.9688 7.5 40.2273V27.7437C7.5 17.0223 7.5 11.6615 10.795 8.33075C14.0901 5 19.3934 5 30 5C40.6065 5 45.91 5 49.205 8.33075C52.5 11.6615 52.5 17.0223 52.5 27.7437ZM20.625 15C20.625 13.9645 21.4645 13.125 22.5 13.125H37.5C38.5355 13.125 39.375 13.9645 39.375 15C39.375 16.0355 38.5355 16.875 37.5 16.875H22.5C21.4645 16.875 20.625 16.0355 20.625 15Z" fill="#1C274D"/>
</svg>
