<svg width="100" height="100" viewBox="0 0 100 100" fill="none" xmlns="http://www.w3.org/2000/svg">
<circle cx="49.9999" cy="49.9999" r="34.6815" stroke="#E8F8FF" stroke-width="0.5"/>
<path d="M49.7849 87.4514C52.2506 87.4514 53.552 88.465 53.6616 90.5061H53.0588C52.9767 88.8212 51.8808 87.9856 49.7849 87.9856C48.8534 87.9856 48.1273 88.1774 47.6205 88.561C47.1273 88.9445 46.8671 89.4925 46.8671 90.1774C46.8671 90.7527 47.0725 91.2048 47.4698 91.5472C47.8671 91.876 48.5383 92.1363 49.4698 92.3281L50.4972 92.5199C51.4698 92.7116 52.1821 93.013 52.6479 93.4377C53.1136 93.8623 53.3328 94.4377 53.3328 95.1774C53.3328 95.9171 53.0451 96.5199 52.4698 96.9719C51.8945 97.4103 51.0862 97.6431 50.0725 97.6431C48.9219 97.6431 48.0588 97.3966 47.4698 96.9034C46.8808 96.4103 46.5794 95.739 46.552 94.8897H47.1547C47.2369 96.3692 48.2095 97.1089 50.0725 97.1089C50.9219 97.1089 51.5794 96.9308 52.0451 96.5883C52.5109 96.2322 52.7301 95.7664 52.7301 95.1774C52.7301 94.5883 52.552 94.1363 52.1684 93.8075C51.7986 93.4788 51.1547 93.2322 50.2369 93.0404L49.2232 92.8486C48.1547 92.6294 47.4013 92.3007 46.9493 91.8897C46.4972 91.4651 46.2643 90.8897 46.2643 90.1774C46.2643 89.3418 46.5794 88.6842 47.1958 88.1911C47.8123 87.6979 48.6753 87.4514 49.7849 87.4514Z" fill="#E8F8FF"/>
<path d="M42.7425 86.7964C43.6851 86.9726 44.3787 87.4368 44.794 88.1973C45.2388 88.9494 45.3555 89.891 45.1466 91.0087C44.9403 92.1129 44.4914 92.9487 43.8026 93.5028C43.1432 94.0484 42.3263 94.244 41.3837 94.0678C40.6296 93.9268 40.0261 93.577 39.5949 93.0504C39.1663 92.5104 38.9648 91.8734 38.9904 91.1396L39.5694 91.2479C39.5715 91.8336 39.7552 92.3418 40.0938 92.7674C40.4323 93.1931 40.8978 93.4613 41.4768 93.5695C42.2443 93.7131 42.9031 93.5436 43.4641 93.0771C44.0276 92.5972 44.3865 91.8699 44.5676 90.9004C44.7513 89.9174 44.6793 89.1096 44.3246 88.4719C43.9725 87.8207 43.4169 87.4381 42.6494 87.2946C42.0569 87.1838 41.5235 87.2792 41.0221 87.5756C40.5342 87.8746 40.1878 88.3115 39.9803 88.8998L39.4148 88.7941C39.6634 88.0602 40.0729 87.5096 40.6701 87.1475C41.2993 86.7634 41.9884 86.6554 42.7425 86.7964Z" fill="#E8F8FF"/>
<path d="M32.1621 91.1549C31.9706 91.0806 31.8478 91.0184 31.7711 90.9887L31.9641 90.4905C32.0279 90.5152 32.1379 90.5725 32.3168 90.6418C33.0831 90.9388 33.7598 90.9366 34.3416 90.6479C34.9412 90.3514 35.3831 89.8174 35.6799 89.051L37.0947 85.3976L37.6184 85.6005L35.0658 92.192L34.5676 91.9989L35.1662 90.4533C34.7994 90.8694 34.3523 91.1515 33.8297 91.2869C33.3072 91.4223 32.7497 91.3826 32.1621 91.1549Z" fill="#E8F8FF"/>
<path d="M27.7474 81.5375C28.6087 81.2652 29.4527 81.3852 30.2679 81.8901C31.0831 82.3951 31.555 83.0902 31.6953 83.9828C31.8473 84.8825 31.6232 85.7911 31.0464 86.723C30.4769 87.6432 29.7637 88.2488 28.8836 88.5254C28.0224 88.7977 27.19 88.6849 26.3748 88.18C25.5596 87.6751 25.076 86.9727 24.9357 86.0802C24.8026 85.176 25.0151 84.2602 25.5846 83.34C26.1614 82.4081 26.8862 81.8097 27.7474 81.5375ZM30.0012 82.3211C29.3257 81.9027 28.627 81.8083 27.9094 82.0567C27.2106 82.3007 26.59 82.8348 26.0854 83.6501C25.5807 84.4655 25.3866 85.2476 25.4725 85.9937C25.5773 86.7354 25.9661 87.3307 26.6415 87.749C27.317 88.1674 28.0229 88.2502 28.7217 88.0062C29.4393 87.7578 30.041 87.2281 30.5457 86.4128C31.0503 85.5974 31.2633 84.8109 31.1585 84.0692C31.0726 83.3231 30.6766 82.7395 30.0012 82.3211Z" fill="#E8F8FF"/>
<path d="M24.2842 77.5256L24.6992 77.904L18.1296 85.113L17.7146 84.7346L24.2842 77.5256Z" fill="#E8F8FF"/>
<path d="M19.6662 72.329L20.0046 72.7773L12.2221 78.6563L11.8837 78.2081L19.6662 72.329Z" fill="#E8F8FF"/>
<path d="M5.35165 66.329L4.54592 63.4961C4.13368 62.0468 4.233 60.7936 4.83069 59.7405C5.44906 58.7099 6.48289 57.9884 7.93218 57.5759C9.40781 57.1559 10.6834 57.2343 11.7326 57.8187C12.795 58.3994 13.5295 59.4295 13.9567 60.9315L14.7325 63.659L5.35165 66.329ZM14.0575 63.2387L13.4429 61.0778C13.0607 59.7338 12.4164 58.8205 11.4799 58.3322C10.5472 57.857 9.41835 57.7938 8.10082 58.1688C6.78328 58.5438 5.85304 59.1789 5.3101 60.074C4.78033 60.9654 4.69249 62.0586 5.0635 63.3631L5.70434 65.6162L14.0575 63.2387Z" fill="#E8F8FF"/>
<path d="M11.4283 51.2424C12.1647 51.7658 12.5777 52.5116 12.6661 53.4665C12.7546 54.4213 12.4843 55.2167 11.8566 55.8665C11.2302 56.5299 10.3702 56.8985 9.27894 56.9997C8.20137 57.0995 7.28823 56.8953 6.53699 56.3596C5.80065 55.8363 5.38889 55.104 5.30044 54.1492C5.21199 53.1944 5.48098 52.3853 6.10865 51.7356C6.74997 51.0845 7.60878 50.7023 8.68636 50.6024C9.77757 50.5012 10.692 50.7191 11.4283 51.2424ZM12.1614 53.5132C12.0882 52.7221 11.7423 52.1076 11.1116 51.6845C10.4957 51.2739 9.6955 51.1004 8.74069 51.1889C7.78588 51.2774 7.04477 51.5938 6.5012 52.1119C5.97254 52.6424 5.73184 53.3113 5.80513 54.1024C5.87841 54.8936 6.23788 55.5069 6.85372 55.9175C7.48447 56.3406 8.2698 56.5016 9.22461 56.4131C10.1794 56.3246 10.9354 56.0207 11.4641 55.4902C12.0077 54.972 12.2347 54.3044 12.1614 53.5132Z" fill="#E8F8FF"/>
<path d="M10.0979 43.2229L5.89449 41.2237L5.95009 40.6235L12.7509 43.8403L12.6927 44.4678L7.80193 45.5827C7.38009 45.6812 6.81806 45.808 6.132 45.937C6.63769 46.1214 7.1545 46.3344 7.70969 46.5785L12.3124 48.5735L12.2556 49.1873L4.97971 51.0992L5.03404 50.5127L9.53182 49.3338C10.3482 49.1343 11.0517 48.9656 11.6559 48.829C11.3634 48.7194 10.688 48.4366 9.65564 47.997L5.43584 46.1751L5.49269 45.5613L9.97531 44.546C11.0696 44.3173 11.7854 44.1635 12.0944 44.0959C11.7102 43.9364 11.0496 43.6413 10.0979 43.2229Z" fill="#E8F8FF"/>
<path d="M6.88525 37.4904C7.10261 36.7262 7.49898 36.1838 8.05369 35.886C8.62157 35.5918 9.30078 35.5573 10.1176 35.7898L14.5314 37.046L14.3777 37.5862L10.0167 36.345C9.33158 36.15 8.76902 36.175 8.30267 36.4126C7.8495 36.6539 7.52639 37.0889 7.3465 37.7214C7.17411 38.3275 7.24819 38.9183 7.57248 39.4806C7.89302 40.0561 8.50126 40.4713 9.39718 40.7263L13.1785 41.8026L13.0249 42.3428L6.22637 40.4078L6.37253 39.8939L7.84817 40.3139C7.39997 39.9869 7.07773 39.5676 6.9078 39.0635C6.73411 38.5725 6.72785 38.0438 6.88525 37.4904Z" fill="#E8F8FF"/>
<path d="M50.2152 12.5473C47.7495 12.5473 46.4481 11.5336 46.3385 9.49246H46.9412C47.0234 11.1774 48.1193 12.013 50.2152 12.013C51.1467 12.013 51.8727 11.8212 52.3796 11.4377C52.8727 11.0541 53.133 10.5062 53.133 9.82122C53.133 9.24588 52.9275 8.79383 52.5303 8.45136C52.133 8.12259 51.4618 7.86232 50.5303 7.67054L49.5029 7.47876C48.5303 7.28698 47.8179 6.98561 47.3522 6.56095C46.8864 6.13629 46.6673 5.56095 46.6673 4.82122C46.6673 4.0815 46.9549 3.47876 47.5303 3.0267C48.1056 2.58835 48.9138 2.35547 49.9275 2.35547C51.0782 2.35547 51.9412 2.60204 52.5303 3.0952C53.1193 3.58835 53.4207 4.25958 53.4481 5.10889H52.8453C52.7631 3.62944 51.7905 2.88972 49.9275 2.88972C49.0782 2.88972 48.4207 3.0678 47.9549 3.41026C47.4892 3.76643 47.27 4.23218 47.27 4.82122C47.27 5.41026 47.4481 5.86232 47.8316 6.19109C48.2015 6.51985 48.8453 6.76643 49.7631 6.95821L50.7768 7.14999C51.8453 7.36917 52.5988 7.69794 53.0508 8.10889C53.5029 8.53355 53.7357 9.10889 53.7357 9.82122C53.7357 10.6568 53.4207 11.3144 52.8042 11.8075C52.1878 12.3007 51.3248 12.5473 50.2152 12.5473Z" fill="#E8F8FF"/>
<path d="M57.2576 13.2022C56.315 13.026 55.6214 12.5618 55.2061 11.8013C54.7613 11.0492 54.6446 10.1076 54.8534 8.98993C55.0598 7.88575 55.5086 7.04991 56.1975 6.49585C56.8568 5.95022 57.6738 5.75459 58.6164 5.93085C59.3704 6.07185 59.974 6.42163 60.4051 6.94821C60.8338 7.48825 61.0353 8.12519 61.0096 8.859L60.4306 8.75073C60.4286 8.16503 60.2449 7.65685 59.9063 7.2312C59.5678 6.80556 59.1023 6.53734 58.5233 6.42907C57.7558 6.28555 57.097 6.45502 56.536 6.92149C55.9725 7.40143 55.6136 8.12868 55.4324 9.0982C55.2488 10.0812 55.3208 10.889 55.6754 11.5267C56.0276 12.1779 56.5832 12.5605 57.3507 12.704C57.9432 12.8148 58.4766 12.7195 58.9779 12.423C59.4658 12.124 59.8122 11.6871 60.0197 11.0988L60.5853 11.2045C60.3366 11.9385 59.9272 12.489 59.3299 12.8512C58.7007 13.2352 58.0116 13.3432 57.2576 13.2022Z" fill="#E8F8FF"/>
<path d="M67.8379 8.84373C68.0295 8.91798 68.1523 8.98026 68.2289 9.00996L68.036 9.50815C67.9721 9.4834 67.8621 9.42607 67.6833 9.35677C66.9169 9.05977 66.2403 9.06201 65.6584 9.3507C65.0588 9.64722 64.617 10.1812 64.3202 10.9476L62.9053 14.601L62.3817 14.3981L64.9343 7.80662L65.4325 7.99967L64.8339 9.54535C65.2007 9.12923 65.6478 8.84708 66.1703 8.71168C66.6929 8.57627 67.2504 8.61603 67.8379 8.84373Z" fill="#E8F8FF"/>
<path d="M72.2526 18.4611C71.3914 18.7334 70.5473 18.6134 69.7321 18.1085C68.9169 17.6036 68.445 16.9084 68.3047 16.0159C68.1528 15.1161 68.3769 14.2075 68.9536 13.2757C69.5232 12.3555 70.2364 11.7498 71.1165 11.4732C71.9777 11.2009 72.8101 11.3137 73.6253 11.8186C74.4405 12.3235 74.9241 13.0259 75.0644 13.9184C75.1974 14.8227 74.985 15.7385 74.4155 16.6586C73.8387 17.5905 73.1139 18.1889 72.2526 18.4611ZM69.9989 17.6775C70.6743 18.0959 71.3731 18.1903 72.0907 17.9419C72.7895 17.6979 73.41 17.1638 73.9147 16.3485C74.4194 15.5331 74.6135 14.751 74.5275 14.0049C74.4227 13.2632 74.034 12.6679 73.3586 12.2496C72.6831 11.8312 71.9771 11.7484 71.2784 11.9924C70.5608 12.2408 69.9591 12.7705 69.4544 13.5858C68.9497 14.4012 68.7368 15.1877 68.8416 15.9294C68.9275 16.6755 69.3234 17.2591 69.9989 17.6775Z" fill="#E8F8FF"/>
<path d="M75.7159 22.473L75.3009 22.0946L81.8705 14.8856L82.2855 15.264L75.7159 22.473Z" fill="#E8F8FF"/>
<path d="M80.3339 27.6696L79.9955 27.2213L87.7779 21.3423L88.1163 21.7905L80.3339 27.6696Z" fill="#E8F8FF"/>
<path d="M93.7254 33.7847L94.5311 36.6175C94.9434 38.0669 94.844 39.32 94.2463 40.3732C93.628 41.4038 92.5942 42.1253 91.1449 42.5378C89.6692 42.9578 88.3936 42.8793 87.3444 42.2949C86.282 41.7143 85.5475 40.6842 85.1203 39.1821L84.3445 36.4547L93.7254 33.7847ZM85.0195 36.875L85.6341 39.0359C86.0164 40.3798 86.6607 41.2931 87.5971 41.7815C88.5298 42.2566 89.6587 42.3199 90.9762 41.9449C92.2938 41.5699 93.224 40.9348 93.7669 40.0396C94.2967 39.1482 94.3846 38.055 94.0135 36.7506L93.3727 34.4975L85.0195 36.875Z" fill="#E8F8FF"/>
<path d="M88.7897 49.1467C88.1152 48.5459 87.7864 47.7592 87.8031 46.8004C87.8199 45.8417 88.1757 45.0806 88.8708 44.5036C89.5661 43.9129 90.4614 43.6407 91.5571 43.6598C92.6392 43.6786 93.5244 43.9817 94.2124 44.5965C94.887 45.1974 95.216 45.9703 95.1993 46.9291C95.1825 47.8878 94.8265 48.6626 94.1314 49.2396C93.4226 49.8164 92.527 50.1023 91.445 50.0835C90.3493 50.0644 89.4643 49.7476 88.7897 49.1467ZM88.3099 46.8093C88.296 47.6037 88.5724 48.2524 89.153 48.742C89.7201 49.2177 90.4965 49.4778 91.4553 49.4945C92.414 49.5112 93.1854 49.278 93.7824 48.8225C94.3661 48.3532 94.6786 47.7147 94.6925 46.9203C94.7064 46.1259 94.4163 45.4769 93.8491 45.0012C93.2686 44.5116 92.5056 44.2654 91.5469 44.2487C90.5881 44.2321 89.8033 44.4513 89.2197 44.9207C88.6226 45.3761 88.3238 46.0149 88.3099 46.8093Z" fill="#E8F8FF"/>
<path d="M88.8821 59.6152L92.9474 61.882L92.8531 62.4774L86.2746 58.8275L86.3732 58.2051L91.3258 57.4088C91.7532 57.3378 92.3222 57.2476 93.0152 57.1633C92.5225 56.9465 92.0205 56.7005 91.4823 56.4211L87.0182 54.1326L87.1146 53.5238L94.4989 52.0863L94.4067 52.6681L89.8421 53.5537C89.0145 53.7 88.3016 53.8228 87.6898 53.92C87.9746 54.0484 88.6304 54.3742 89.6321 54.8797L93.7253 56.9707L93.6288 57.5795L89.09 58.3027C87.9832 58.4602 87.2589 58.5674 86.9462 58.6149C87.3193 58.7989 87.9594 59.1361 88.8821 59.6152Z" fill="#E8F8FF"/>
<path d="M90.5168 67.6903C90.232 68.4321 89.7888 68.9369 89.2097 69.184C88.6178 69.4263 87.9383 69.4001 87.1454 69.0955L82.8615 67.4502L83.0628 66.9258L87.2955 68.5516C87.9605 68.807 88.5231 68.8322 89.0088 68.6373C89.4817 68.4374 89.8423 68.0329 90.078 67.4191C90.3038 66.8308 90.2828 66.2357 90.01 65.6467C89.7421 65.0449 89.1734 64.577 88.3038 64.243L84.6337 62.8334L84.835 62.3091L91.4335 64.8434L91.242 65.3422L89.8098 64.7921C90.227 65.1578 90.5105 65.6042 90.6348 66.1215C90.7639 66.626 90.7229 67.1532 90.5168 67.6903Z" fill="#E8F8FF"/>
<circle cx="50" cy="50" r="49.75" stroke="#E8F8FF" stroke-width="0.5"/>
</svg>
