<svg width="32" height="32" viewBox="0 0 32 32" fill="none" xmlns="http://www.w3.org/2000/svg">
<path d="M29.0611 26.9392L29.0611 26.9392L23.1187 20.998C24.8238 18.7773 25.6646 16.0059 25.4732 13.2021C25.2713 10.2459 23.9376 7.48136 21.7493 5.4835C19.5611 3.48563 16.6869 2.40831 13.7246 2.47563C10.7622 2.54296 7.93993 3.74975 5.84471 5.84496C3.7495 7.94017 2.54271 10.7625 2.47539 13.7248C2.40806 16.6871 3.48539 19.5614 5.48326 21.7496C7.48112 23.9378 10.2457 25.2716 13.2019 25.4734C16.0057 25.6648 18.7771 24.8241 20.9978 23.119L26.939 29.0613L26.939 29.0613C27.0783 29.2007 27.2438 29.3112 27.4258 29.3866C27.6079 29.462 27.803 29.5008 28 29.5008C28.1971 29.5008 28.3922 29.462 28.5743 29.3866C28.7563 29.3112 28.9218 29.2007 29.0611 29.0613C29.2004 28.922 29.311 28.7566 29.3864 28.5745C29.4618 28.3925 29.5006 28.1973 29.5006 28.0003C29.5006 27.8032 29.4618 27.6081 29.3864 27.426C29.311 27.244 29.2004 27.0786 29.0611 26.9392ZM5.50004 13.9999C5.50011 12.3189 5.99862 10.6757 6.93255 9.27794C7.86654 7.88012 9.19406 6.79065 10.7472 6.14731C12.3004 5.50396 14.0095 5.33564 15.6583 5.66361C17.3071 5.99158 18.8217 6.80113 20.0104 7.98988C21.1992 9.17862 22.0087 10.6932 22.3367 12.342C22.6647 13.9909 22.4964 15.6999 21.853 17.2531C21.2097 18.8063 20.1202 20.1338 18.7224 21.0678C17.3247 22.0017 15.6815 22.5002 14.0006 22.5003C11.7469 22.4978 9.58618 21.6014 7.99256 20.0078C6.39899 18.4142 5.5026 16.2536 5.50004 13.9999Z" fill="black" stroke="black"/>
</svg>
