<svg width="45" height="45" viewBox="0 0 45 45" fill="none" xmlns="http://www.w3.org/2000/svg">
<path fill-rule="evenodd" clip-rule="evenodd" d="M33.2189 18.6917L12.7133 8.35969C12.1775 8.04627 11.5219 8.0165 10.9599 8.28005C10.3979 8.54361 10.0015 9.06674 9.8999 9.67909C9.90692 9.88252 9.95595 10.0823 10.0439 10.2659L13.9481 19.6979C14.1441 20.3241 14.2507 20.975 14.2649 21.6311C14.2508 22.2872 14.1441 22.9381 13.9481 23.5643L10.0439 32.9963C9.95595 33.1799 9.90692 33.3797 9.8999 33.5831C10.0023 34.1945 10.3986 34.7167 10.9599 34.9797C11.5213 35.2429 12.1761 35.2132 12.7115 34.9007L33.2189 24.5687C34.3624 24.0375 35.094 22.8911 35.094 21.6302C35.094 20.3693 34.3624 19.2229 33.2189 18.6917Z" stroke="black" stroke-width="2.4" stroke-linecap="round" stroke-linejoin="round"/>
</svg>
