<svg width="29" height="31" viewBox="0 0 29 31" fill="none" xmlns="http://www.w3.org/2000/svg">
<path fill-rule="evenodd" clip-rule="evenodd" d="M25.319 12.5901L4.8134 2.25812C4.27763 1.94471 3.62196 1.91494 3.05998 2.17849C2.49801 2.44205 2.10165 2.96518 2 3.57752C2.00702 3.78096 2.05605 3.98074 2.144 4.16432L6.0482 13.5963C6.24415 14.2225 6.3508 14.8734 6.365 15.5295C6.35085 16.1856 6.2442 16.8365 6.0482 17.4627L2.144 26.8947C2.05605 27.0783 2.00702 27.2781 2 27.4815C2.10237 28.093 2.49865 28.6152 3.06002 28.8781C3.6214 29.1413 4.27621 29.1116 4.8116 28.7991L25.319 18.4671C26.4625 17.9359 27.1941 16.7895 27.1941 15.5286C27.1941 14.2677 26.4625 13.1213 25.319 12.5901Z" stroke="black" stroke-width="2.4" stroke-linecap="round" stroke-linejoin="round"/>
</svg>
