<svg width="25" height="25" viewBox="0 0 25 25" fill="none" xmlns="http://www.w3.org/2000/svg">
<rect width="25" height="25" fill="#1E1E1E"/>
<g id="Landing Page">
<path d="M-3860 -2580C-3860 -2581.1 -3859.1 -2582 -3858 -2582H2451C2452.1 -2582 2453 -2581.1 2453 -2580V5725C2453 5726.1 2452.1 5727 2451 5727H-3858C-3859.1 5727 -3860 5726.1 -3860 5725V-2580Z" fill="#404040"/>
<path d="M-3858 -2581H2451V-2583H-3858V-2581ZM2452 -2580V5725H2454V-2580H2452ZM2451 5726H-3858V5728H2451V5726ZM-3859 5725V-2580H-3861V5725H-3859ZM-3858 5726C-3858.55 5726 -3859 5725.55 -3859 5725H-3861C-3861 5726.66 -3859.66 5728 -3858 5728V5726ZM2452 5725C2452 5725.55 2451.55 5726 2451 5726V5728C2452.66 5728 2454 5726.66 2454 5725H2452ZM2451 -2581C2451.55 -2581 2452 -2580.55 2452 -2580H2454C2454 -2581.66 2452.66 -2583 2451 -2583V-2581ZM-3858 -2583C-3859.66 -2583 -3861 -2581.66 -3861 -2580H-3859C-3859 -2580.55 -3858.55 -2581 -3858 -2581V-2583Z" fill="white" fill-opacity="0.1"/>
<g id="Hero Slide" clip-path="url(#clip0_0_1)">
<rect width="1440" height="5818" transform="translate(-131 -1806)" fill="#181818"/>
<g id="Category options">
<g id="Frame 8">
<rect id="Rectangle 20" x="-28" y="-94" width="261" height="197" rx="14" fill="url(#paint0_linear_0_1)" stroke="#565656" stroke-width="2"/>
</g>
<g id="Group 1000004183" style="mix-blend-mode:lighten">
<g id="Group 1000004175">
<path id="Star 1" d="M10.5979 1.8541C11.1966 0.0114751 13.8034 0.0114799 14.4021 1.8541L15.98 6.71024C16.2477 7.53428 17.0156 8.0922 17.8821 8.0922L22.9881 8.0922C24.9256 8.0922 25.7311 10.5714 24.1637 11.7102L20.0328 14.7115C19.3318 15.2208 19.0385 16.1235 19.3063 16.9476L20.8841 21.8037C21.4828 23.6463 19.3739 25.1786 17.8064 24.0398L13.6756 21.0385C12.9746 20.5292 12.0254 20.5292 11.3244 21.0385L7.19355 24.0398C5.62612 25.1786 3.51717 23.6463 4.11587 21.8037L5.69373 16.9476C5.96147 16.1235 5.66816 15.2208 4.96718 14.7115L0.836303 11.7102C-0.731125 10.5714 0.07443 8.0922 2.01188 8.0922L7.11792 8.0922C7.98437 8.0922 8.75228 7.53428 9.02003 6.71024L10.5979 1.8541Z" fill="#00B2FF"/>
</g>
</g>
</g>
</g>
</g>
<defs>
<linearGradient id="paint0_linear_0_1" x1="102.5" y1="-95" x2="102.5" y2="104" gradientUnits="userSpaceOnUse">
<stop stop-color="#282828"/>
<stop offset="1" stop-color="#181818"/>
</linearGradient>
<clipPath id="clip0_0_1">
<rect width="1440" height="5818" fill="white" transform="translate(-131 -1806)"/>
</clipPath>
</defs>
</svg>
