<svg xmlns="http://www.w3.org/2000/svg" width="32" height="32" viewBox="0 0 32 32" fill="none">
  <path d="M30.9237 8.618C30.8481 8.43526 30.72 8.27906 30.5555 8.16915C30.3911 8.05923 30.1978 8.00055 30 8.0005H26.1963C25.6644 7.09573 24.9076 6.34395 23.9992 5.81826C23.0909 5.29257 22.0619 5.01086 21.0125 5.0005C20.2306 4.99025 19.4546 5.13647 18.7301 5.43057C18.0056 5.72466 17.3472 6.16069 16.7937 6.713C16.2241 7.27203 15.7719 7.93931 15.4639 8.67561C15.1559 9.41191 14.9981 10.2024 15 11.0005V11.7618C9.9675 10.4343 5.85125 6.3405 5.8075 6.29675C5.67334 6.16141 5.5033 6.06721 5.3174 6.02526C5.1315 5.98332 4.93748 5.99536 4.7582 6.05998C4.57891 6.1246 4.42183 6.23911 4.30544 6.39001C4.18905 6.54092 4.11821 6.72194 4.10125 6.91175C3.5625 12.8855 5.2975 16.883 6.85125 19.1843C7.60885 20.3219 8.53048 21.3412 9.58625 22.2093C7.6825 24.4005 4.685 25.5518 4.6525 25.5643C4.51139 25.6171 4.38405 25.7012 4.27999 25.8101C4.17594 25.9191 4.09785 26.0502 4.05158 26.1936C4.0053 26.337 3.99203 26.489 4.01275 26.6383C4.03347 26.7875 4.08765 26.9301 4.17125 27.0555C4.265 27.1955 4.64 27.6868 5.55625 28.1455C6.68875 28.713 8.185 29.0005 10 29.0005C18.8337 29.0005 26.215 22.198 26.9688 13.4455L30.7075 9.708C30.8473 9.56808 30.9425 9.38983 30.981 9.19581C31.0195 9.00179 30.9995 8.80071 30.9237 8.618ZM25.2987 12.2943C25.1273 12.4661 25.0242 12.6945 25.0088 12.9368C24.5 20.823 17.91 27.0005 10 27.0005C8.68 27.0005 7.75 26.8255 7.0975 26.6155C8.53625 25.8343 10.5425 24.4905 11.8325 22.5555C11.9082 22.4417 11.9598 22.3136 11.9841 22.1791C12.0083 22.0446 12.0048 21.9066 11.9736 21.7735C11.9425 21.6405 11.8844 21.5152 11.8029 21.4055C11.7214 21.2957 11.6184 21.2038 11.5 21.1355C11.4412 21.1018 6.01125 17.843 6 9.1355C8 10.7605 11.6562 13.2818 15.8337 13.9843C15.9769 14.0084 16.1236 14.0011 16.2637 13.9628C16.4037 13.9245 16.5338 13.8562 16.6448 13.7626C16.7558 13.6689 16.845 13.5523 16.9064 13.4207C16.9677 13.2891 16.9997 13.1457 17 13.0005V11.0005C16.9989 10.4671 17.1045 9.93879 17.3105 9.44677C17.5166 8.95474 17.819 8.50891 18.2 8.1355C18.5652 7.76963 19 7.48067 19.4788 7.28573C19.9576 7.09078 20.4706 6.99379 20.9875 7.0005C22.57 7.0205 24.0487 7.9855 24.6675 9.40175C24.7455 9.57981 24.8737 9.73128 25.0364 9.83762C25.1992 9.94395 25.3894 10.0006 25.5837 10.0005H27.5837L25.2987 12.2943Z" fill="#64D3FE"/>
</svg>