<svg width="25" height="25" viewBox="0 0 25 25" fill="none" xmlns="http://www.w3.org/2000/svg">
<path d="M21.0794 12.5585L20.3445 16.8082L21.8841 17.0745L22.6191 12.8247L21.0794 12.5585ZM13.797 22.1341H8.95468V23.6966H13.797V22.1341ZM8.00533 21.2617L7.15933 11.4777L5.60264 11.6122L6.44864 21.3963L8.00533 21.2617ZM20.3445 16.8082C19.8166 19.8609 17.064 22.1341 13.797 22.1341V23.6966C17.7827 23.6966 21.2197 20.9164 21.8841 17.0745L20.3445 16.8082ZM13.8072 5.31135L13.1169 9.52444L14.6589 9.77708L15.3492 5.56399L13.8072 5.31135ZM7.48736 10.6712L8.98605 9.37979L7.96607 8.19613L6.46738 9.48758L7.48736 10.6712ZM11.7127 5.17792L12.2082 3.26766L10.6958 2.87533L10.2002 4.78559L11.7127 5.17792ZM12.9566 2.89287L13.1077 2.94138L13.5855 1.45377L13.4345 1.40525L12.9566 2.89287ZM10.9621 7.09868C11.287 6.49034 11.5394 5.84597 11.7127 5.17792L10.2002 4.78559C10.0582 5.33314 9.85118 5.86216 9.58392 6.36248L10.9621 7.09868ZM13.1077 2.94138C13.4268 3.04392 13.6535 3.29045 13.728 3.57769L15.2404 3.18537C15.0264 2.36035 14.3949 1.71378 13.5855 1.45377L13.1077 2.94138ZM12.2082 3.26766C12.2446 3.12703 12.3462 2.99779 12.4999 2.92373L11.8216 1.51614C11.2674 1.78316 10.8512 2.27606 10.6958 2.87533L12.2082 3.26766ZM12.4999 2.92373C12.6403 2.8561 12.8055 2.84433 12.9566 2.89287L13.4345 1.40525C12.9035 1.23468 12.3243 1.2739 11.8216 1.51614L12.4999 2.92373ZM14.7436 11.4406H20.1406V9.87807H14.7436V11.4406ZM15.3492 5.56399C15.4789 4.77219 15.4418 3.96201 15.2404 3.18537L13.728 3.57769C13.8748 4.14372 13.9018 4.73423 13.8072 5.31135L15.3492 5.56399ZM8.95468 22.1341C8.46102 22.1341 8.04807 21.756 8.00533 21.2617L6.44864 21.3963C6.5611 22.6968 7.64879 23.6966 8.95468 23.6966V22.1341ZM8.98605 9.37979C9.69424 8.76953 10.4576 8.04314 10.9621 7.09868L9.58392 6.36248C9.2231 7.03793 8.64858 7.60799 7.96607 8.19613L8.98605 9.37979ZM22.6191 12.8247C22.885 11.2867 21.7023 9.87807 20.1406 9.87807V11.4406C20.7308 11.4406 21.1806 11.9736 21.0794 12.5585L22.6191 12.8247ZM13.1169 9.52444C12.9527 10.5275 13.7258 11.4406 14.7436 11.4406V9.87807C14.6916 9.87807 14.6501 9.83099 14.6589 9.77708L13.1169 9.52444ZM7.15933 11.4777C7.13285 11.1714 7.25509 10.8714 7.48736 10.6712L6.46738 9.48758C5.85454 10.0157 5.53295 10.8063 5.60264 11.6122L7.15933 11.4777Z" fill="#1C274C"/>
<path opacity="0.5" d="M3.125 10.6602L3.90334 10.5929C3.8673 10.1761 3.5093 9.86161 3.09132 9.87964C2.67333 9.89769 2.34375 10.2418 2.34375 10.6602H3.125ZM4.91543 22.2976L3.90334 10.5929L2.34666 10.7275L3.35874 22.4322L4.91543 22.2976ZM3.90625 22.4086V10.6602H2.34375V22.4086H3.90625ZM3.35874 22.4322C3.345 22.2733 3.47027 22.135 3.63199 22.135V23.6975C4.38821 23.6975 4.98044 23.0495 4.91543 22.2976L3.35874 22.4322ZM3.63199 22.135C3.78429 22.135 3.90625 22.2583 3.90625 22.4086H2.34375C2.34375 23.1196 2.91968 23.6975 3.63199 23.6975V22.135Z" fill="#1C274C"/>
</svg>
