<svg width="60" height="60" viewBox="0 0 60 60" fill="none" xmlns="http://www.w3.org/2000/svg">
<path d="M52.5 40.2273V27.7437C52.5 17.0223 52.5 11.6615 49.205 8.33075C45.91 5 40.6065 5 30 5C19.3934 5 14.0901 5 10.795 8.33075C7.5 11.6615 7.5 17.0223 7.5 27.7437V40.2273C7.5 47.9688 7.5 51.8395 9.33528 53.5308C10.2105 54.3375 11.3154 54.8443 12.4923 54.9788C14.9601 55.2613 17.8418 52.7122 23.6054 47.6145C26.153 45.3612 27.427 44.2345 28.9007 43.9377C29.6265 43.7915 30.3735 43.7915 31.0993 43.9377C32.573 44.2345 33.847 45.3612 36.3945 47.6145C42.1583 52.7122 45.04 55.2613 47.5077 54.9788C48.6847 54.8443 49.7895 54.3375 50.6647 53.5308C52.5 51.8395 52.5 47.9688 52.5 40.2273Z" stroke="#1C274D" stroke-width="3.75"/>
<path d="M37.5 15H22.5" stroke="#1C274D" stroke-width="3.75" stroke-linecap="round"/>
</svg>
